<?xml version="1.0" encoding="utf-8"?>
<!-- Svg Vector Icons : http://www.onlinewebfonts.com/icon -->
<!DOCTYPE svg PUBLIC "-//W3C//DTD SVG 1.1//EN" "http://www.w3.org/Graphics/SVG/1.1/DTD/svg11.dtd">
<svg version="1.1" xmlns="http://www.w3.org/2000/svg" xmlns:xlink="http://www.w3.org/1999/xlink" x="0px" y="0px" viewBox="0 0 1000 1000" enable-background="new 0 0 1000 1000" xml:space="preserve" fill="#EDFF86">
<metadata> Svg Vector Icons : http://www.onlinewebfonts.com/icon </metadata>
<g><g><path d="M839.4,10c9.9,0,19.4,1.9,28.5,5.8c14.3,5.6,25.6,14.5,34,26.6c8.4,12.1,12.6,25.5,12.6,40.2v834.9c0,14.7-4.2,28.1-12.6,40.2c-8.4,12.1-19.8,20.9-34,26.6c-8.2,3.5-17.7,5.2-28.5,5.2c-20.7,0-38.6-6.9-53.8-20.7L500,694L214.4,968.6c-15.5,14.3-33.5,21.4-53.8,21.4c-9.9,0-19.4-1.9-28.5-5.8c-14.3-5.6-25.6-14.5-34-26.6c-8.4-12.1-12.6-25.5-12.6-40.2V82.5c0-14.7,4.2-28.1,12.6-40.2c8.4-12.1,19.8-20.9,34-26.6c9.1-3.9,18.6-5.8,28.5-5.8L839.4,10L839.4,10z"/></g></g>
</svg>
